<?xml version="1.0" encoding="utf-8"?>
<!-- Generator: Adobe Illustrator 23.0.6, SVG Export Plug-In . SVG Version: 6.00 Build 0)  -->
<svg version="1.1" id="Layer_1" xmlns="http://www.w3.org/2000/svg" xmlns:xlink="http://www.w3.org/1999/xlink" x="0px" y="0px"
	 viewBox="0 0 295.2 295.2" style="enable-background:new 0 0 295.2 295.2;" xml:space="preserve">
<style type="text/css">
	
</style>
<g>
	<g>
		<g>
			<path class="st0" d="M233.3,214.3v-9.5H281l0,0c7.9,0,14.3-6.4,14.3-14.3v-76.2c0-7.9-6.4-14.3-14.3-14.3H147.6
				c-7.9,0-14.3,6.4-14.3,14.3v76.2c0,7.9,6.4,14.3,14.3,14.3h47.6v9.5h-81v-4.8c0-7.9-6.7-14.3-14.6-14.3h-16l-48.9-79.6
				c2.1-3.1,3.4-6.8,3.4-10.8c0-1.2-0.1-2.3-0.3-3.4l19.9-36.5C59.5,74,64.6,82,72.2,87.8l3.1,2.3l11.8-10.5
				c2.6,0.9,5.2,1.4,7.9,1.4c13.1,0,23.8-10.7,23.8-23.8c0-1.7-0.3-3.5-0.7-5.2l11.8-10.5l-1.9-3.4C121.1,26.4,108.5,19,95,19
				c-0.9,0-1.8,0.1-2.7,0.1l-16.1-16L40.8,32.6l6.6,8.7L16.1,86C7,87.5,0,95.3,0,104.8c0,7.1,4,13.3,9.8,16.6l39.4,73.9H33.1
				c-7.9,0-14,6.4-14,14.3v4.8H0V243h14.3v52.4h9.5V243h9.5v52.4h9.5V243h209.5v52.4h9.5V243h9.5v52.4h9.5V243h14.3v-28.6
				L233.3,214.3L233.3,214.3z M142.9,114.3c0-2.6,2.1-4.8,4.8-4.8H281c2.6,0,4.8,2.1,4.8,4.8v61.9H142.9V114.3z M195.2,195.2h-47.6
				c-2.6,0-4.8-2.1-4.8-4.8v-4.8h142.9v4.8c0,2.6-2.1,4.8-4.8,4.8h-47.6H195.2z M223.8,204.8v9.5h-19v-9.5H223.8z M96.2,71.4
				l12.7-11.3C107.7,66.1,102.5,70.8,96.2,71.4z M95,28.6c8.9,0,17.2,4.2,22.6,11.1L75,77.5c-5.5-5.4-8.6-12.6-8.6-20.4
				C66.4,41.4,79.2,28.6,95,28.6z M75.6,16l5.7,5.7C71.7,25.3,64,32.8,59.9,42.2l-6.1-8.1L75.6,16z M53.4,49.3l1.1,1.5L32.4,91.2
				c-1.6-1.6-3.5-2.9-5.7-3.8L53.4,49.3z M9.5,104.8c0-5.3,4.3-9.5,9.5-9.5c5.3,0,9.5,4.3,9.5,9.5c0,5.3-4.3,9.5-9.5,9.5
				S9.5,110,9.5,104.8z M21.8,123.5c2-0.3,3.8-0.9,5.5-1.7l45.1,73.4H60L21.8,123.5z M33.1,204.8h66.7c2.6,0,5,2.1,5,4.8v4.8H28.6
				v-4.8l0,0C28.6,206.9,30.4,204.8,33.1,204.8z M285.7,233.3H281h-28.6H42.9H14.3H9.5v-9.5h9.2H114h81.2h38.1h52.4L285.7,233.3
				L285.7,233.3z"/>
			<rect x="138.1" y="81" class="st0" width="152.4" height="9.5"/>
			<path class="st0" d="M204.8,0h-38.1v76.2h38.1L204.8,0L204.8,0z M195.2,66.7h-19v-19h19V66.7z M195.2,38.1h-19V9.5h19V38.1z"/>
			<circle class="st0" cx="185.7" cy="57.1" r="4.8"/>
			<path class="st0" d="M247.6,0h-38.1v76.2h38.1V0z M219,9.5h19v28.6h-19V9.5z M238.1,66.7h-19v-19h19V66.7z"/>
			<circle class="st0" cx="228.6" cy="57.1" r="4.8"/>
			<path class="st0" d="M290.5,0h-38.1v76.2h38.1V0z M261.9,9.5h19v28.6h-19V9.5z M281,66.7h-19v-19h19V66.7z"/>
			<circle class="st0" cx="271.4" cy="57.1" r="4.8"/>
		</g>
	</g>
</g>
</svg>
