<?xml version="1.0" encoding="utf-8"?>
<!-- Generator: Adobe Illustrator 23.0.6, SVG Export Plug-In . SVG Version: 6.00 Build 0)  -->
<svg version="1.1" id="Слой_1" xmlns="http://www.w3.org/2000/svg" xmlns:xlink="http://www.w3.org/1999/xlink" x="0px" y="0px"
	 viewBox="0 0 480 480" style="enable-background:new 0 0 480 480;" xml:space="preserve">
<style type="text/css">
</style>
<path class="st0" d="M472,96H328c-4.4,0-8,3.6-8,8v184H144v-0.1c-5.7,0.5-11.4,0.2-17.2,0.2c-0.3,0-0.6,0-0.9-0.1H97.1
	c-0.5,0.2-1.1,0.3-1.8,0.3c-4.8-0.1-9.7-0.8-14.5-0.5c-0.3,0-0.6,0-0.8,0v0.3H48v-0.2H33c-0.4,0-0.7,0-1-0.1v0.3H8c-4.4,0-8,3.6-8,8
	v176c0,4.4,3.6,8,8,8h464c4.4,0,8-3.6,8-8V104C480,99.6,476.4,96,472,96z M160,464H16V352h144V464z M160,336H16v-32h144V336z
	 M240,464h-64V352h64V464z M320,464h-64V352h64V464z M320,336H176v-32h144V336z M464,464H336V224h128V464z M464,208H336v-96h128V208
	z"/>
<path class="st0" d="M352,144h16v32h-16V144z"/>
<path class="st0" d="M352,256h16v32h-16V256z"/>
<path class="st0" d="M48,320c0,4.4-3.6,8-8,8s-8-3.6-8-8s3.6-8,8-8S48,315.6,48,320z"/>
<path class="st0" d="M80,320c0,4.4-3.6,8-8,8s-8-3.6-8-8s3.6-8,8-8S80,315.6,80,320z"/>
<path class="st0" d="M112,320c0,4.4-3.6,8-8,8s-8-3.6-8-8s3.6-8,8-8S112,315.6,112,320z"/>
<path class="st0" d="M144,320c0,4.4-3.6,8-8,8s-8-3.6-8-8s3.6-8,8-8S144,315.6,144,320z"/>
<path class="st0" d="M136,368H40c-4.4,0-8,3.6-8,8v64c0,4.4,3.6,8,8,8h96c4.4,0,8-3.6,8-8v-64C144,371.6,140.4,368,136,368z
	 M128,432H48v-48h80V432z"/>
<path class="st0" d="M208,392h16v32h-16V392z"/>
<path class="st0" d="M272,392h16v32h-16V392z"/>
</svg>
