<?xml version="1.0" encoding="utf-8"?>
<!-- Generator: Adobe Illustrator 23.0.6, SVG Export Plug-In . SVG Version: 6.00 Build 0)  -->
<svg version="1.1" id="Capa_1" xmlns="http://www.w3.org/2000/svg" xmlns:xlink="http://www.w3.org/1999/xlink" x="0px" y="0px"
	 viewBox="0 0 512 512" style="enable-background:new 0 0 512 512;" xml:space="preserve">
<style type="text/css">
</style>
<g>
	<g>
		<path class="st0" d="M401.1,34.1c-4.7,0-8.5,3.8-8.5,8.5v34.1c0,4.7,3.8,8.5,8.5,8.5s8.5-3.8,8.5-8.5v-34
			C409.6,37.9,405.8,34.1,401.1,34.1z"/>
	</g>
</g>
<g>
	<g>
		<path class="st0" d="M119.5,34.1c-4.7,0-8.5,3.8-8.5,8.5v34.1c0,4.7,3.8,8.5,8.5,8.5s8.5-3.8,8.5-8.5v-34
			C128,37.9,124.2,34.1,119.5,34.1z"/>
	</g>
</g>
<g>
	<g>
		<path class="st0" d="M51.2,443.7c-18.8,0-34.1,15.3-34.1,34.1S32.4,512,51.2,512s34.1-15.3,34.1-34.1S70,443.7,51.2,443.7z
			 M51.2,494.9c-9.4,0-17.1-7.7-17.1-17.1s7.7-17.1,17.1-17.1s17.1,7.7,17.1,17.1S60.6,494.9,51.2,494.9z"/>
	</g>
</g>
<g>
	<g>
		<path class="st0" d="M93.9,418.1H8.5c-4.7,0-8.5,3.8-8.5,8.5v25.6c0,4.7,3.8,8.5,8.5,8.5h85.3c4.7,0,8.5-3.8,8.5-8.5v-25.6
			C102.4,421.9,98.6,418.1,93.9,418.1z M85.3,443.7H17.1v-8.5h68.3L85.3,443.7L85.3,443.7z"/>
	</g>
</g>
<g>
	<g>
		<path class="st0" d="M68.3,34.1H34.1c-4.7,0-8.5,3.8-8.5,8.5v384c0,4.7,3.8,8.5,8.5,8.5h34.1c4.7,0,8.5-3.8,8.5-8.5v-384
			C76.8,37.9,73,34.1,68.3,34.1z M59.7,418.1h-17V51.2h17.1L59.7,418.1L59.7,418.1z"/>
	</g>
</g>
<g>
	<g>
		<path class="st0" d="M460.8,443.7c-18.8,0-34.1,15.3-34.1,34.1S442,512,460.8,512s34.1-15.3,34.1-34.1S479.6,443.7,460.8,443.7z
			 M460.8,494.9c-9.4,0-17.1-7.7-17.1-17.1s7.7-17.1,17.1-17.1s17.1,7.7,17.1,17.1S470.2,494.9,460.8,494.9z"/>
	</g>
</g>
<g>
	<g>
		<path class="st0" d="M503.5,418.1h-85.3c-4.7,0-8.5,3.8-8.5,8.5v25.6c0,4.7,3.8,8.5,8.5,8.5h85.3c4.7,0,8.5-3.8,8.5-8.5v-25.6
			C512,421.9,508.2,418.1,503.5,418.1z M494.9,443.7h-68.3v-8.5h68.3L494.9,443.7L494.9,443.7z"/>
	</g>
</g>
<g>
	<g>
		<path class="st0" d="M477.9,34.1h-34.1c-4.7,0-8.5,3.8-8.5,8.5v384c0,4.7,3.8,8.5,8.5,8.5h34.1c4.7,0,8.5-3.8,8.5-8.5v-384
			C486.4,37.9,482.6,34.1,477.9,34.1z M469.3,418.1h-17.1V51.2h17.1V418.1z"/>
	</g>
</g>
<g>
	<g>
		<path class="st0" d="M486.4,0H25.6C11.5,0,0,11.5,0,25.6s11.5,25.6,25.6,25.6h460.8c14.1,0,25.6-11.5,25.6-25.6S500.5,0,486.4,0z
			 M486.4,34.1H25.6c-4.7,0-8.5-3.8-8.5-8.5s3.8-8.5,8.5-8.5h460.8c4.7,0,8.5,3.8,8.5,8.5S491.1,34.1,486.4,34.1z"/>
	</g>
</g>
<g>
	<g>
		<path class="st0" d="M162.1,34.1c-4.7,0-8.5,3.8-8.5,8.5v51.2c0,4.7,3.8,8.5,8.5,8.5s8.5-3.8,8.5-8.5V42.7
			C170.7,37.9,166.8,34.1,162.1,34.1z"/>
	</g>
</g>
<g>
	<g>
		<path class="st0" d="M162.1,119.5c-45.9,0-76.8,17.2-76.8,42.7v17.1c0,4.7,3.8,8.5,8.5,8.5h17.1v59.7c0,4.7,3.8,8.5,8.5,8.5h85.3
			c4.7,0,8.5-3.8,8.5-8.5v-59.7h17.1c4.7,0,8.5-3.8,8.5-8.5v-17.1C238.9,136.6,208.1,119.5,162.1,119.5z M221.9,170.7h-17.1
			c-4.7,0-8.5,3.8-8.5,8.5v59.7H128v-59.7c0-4.7-3.8-8.5-8.5-8.5h-17.1v-8.5c0-12.4,20.9-25.6,59.7-25.6s59.7,13.2,59.7,25.6
			L221.9,170.7L221.9,170.7z"/>
	</g>
</g>
<g>
	<g>
		<path class="st0" d="M221.9,119.5c-11.4,0-22,1.1-31.7,3.2c-3.9,0.9-6.7,4.3-6.7,8.3s2.8,7.5,6.7,8.3
			c19.3,4.2,31.7,13.2,31.7,22.8v8.5h-17.1c-4.7,0-8.5,3.8-8.5,8.5v68.3c0,4.7,3.8,8.5,8.5,8.5h59.7c4.7,0,8.5-3.8,8.5-8.5v-59.7
			h17.1c4.7,0,8.5-3.8,8.5-8.5v-17.1C298.7,136.6,267.8,119.5,221.9,119.5z M281.6,170.7h-17.1c-4.7,0-8.5,3.8-8.5,8.5v59.7h-42.7
			v-51.2h17.1c4.7,0,8.5-3.8,8.5-8.5v-17.1c0-9.8-4.7-18.6-13.4-25.6c36.4,0.8,56,13.6,56,25.6v8.6H281.6z"/>
	</g>
</g>
<g>
	<g>
		<path class="st0" d="M281.6,119.5c-11.4,0-22,1.1-31.7,3.2c-3.9,0.9-6.7,4.3-6.7,8.3s2.8,7.5,6.7,8.3
			c19.3,4.2,31.7,13.2,31.7,22.8v8.5h-17.1c-4.7,0-8.5,3.8-8.5,8.5v68.3c0,4.7,3.8,8.5,8.5,8.5h59.7c4.7,0,8.5-3.8,8.5-8.5v-59.7
			h17.1c4.7,0,8.5-3.8,8.5-8.5v-17.1C358.4,136.6,327.5,119.5,281.6,119.5z M341.3,170.7h-17.1c-4.7,0-8.5,3.8-8.5,8.5v59.7H273
			v-51.2h17.1c4.7,0,8.5-3.8,8.5-8.5v-17.1c0-9.8-4.7-18.6-13.4-25.6c36.4,0.8,56,13.6,56,25.6L341.3,170.7L341.3,170.7z"/>
	</g>
</g>
<g>
	<g>
		<path class="st0" d="M162.1,85.3c-4.7,0-8.5,3.8-8.5,8.5s3.8,8.5,8.5,8.5s8.5,3.8,8.5,8.5s-3.8,8.5-8.5,8.5s-8.5-3.8-8.5-8.5
			s-3.8-8.5-8.5-8.5s-8.5,3.8-8.5,8.5c0,14.1,11.5,25.6,25.6,25.6s25.6-11.5,25.6-25.6S176.2,85.3,162.1,85.3z"/>
	</g>
</g>
<g>
	<g>
		<path class="st0" d="M230.4,34.1c-4.7,0-8.5,3.8-8.5,8.5v51.2c0,4.7,3.8,8.5,8.5,8.5s8.5-3.8,8.5-8.5V42.7
			C238.9,37.9,235.1,34.1,230.4,34.1z"/>
	</g>
</g>
<g>
	<g>
		<path class="st0" d="M298.7,34.1c-4.7,0-8.5,3.8-8.5,8.5v51.2c0,4.7,3.8,8.5,8.5,8.5s8.5-3.8,8.5-8.5V42.7
			C307.2,37.9,303.4,34.1,298.7,34.1z"/>
	</g>
</g>
<g>
	<g>
		<path class="st0" d="M366.9,34.1c-4.7,0-8.5,3.8-8.5,8.5v51.2c0,4.7,3.8,8.5,8.5,8.5s8.5-3.8,8.5-8.5V42.7
			C375.5,37.9,371.6,34.1,366.9,34.1z"/>
	</g>
</g>
<g>
	<g>
		<path class="st0" d="M443.7,349.9H68.3c-4.7,0-8.5,3.8-8.5,8.5v34.1c0,4.7,3.8,8.5,8.5,8.5h375.5c4.7,0,8.5-3.8,8.5-8.5v-34.1
			C452.3,353.7,448.4,349.9,443.7,349.9z M435.2,384H76.8v-17.1h358.4V384z"/>
	</g>
</g>
<g>
	<g>
		<path class="st0" d="M401.1,315.7H298.7c-4.7,0-8.5,3.8-8.5,8.5v34.1c0,4.7,3.8,8.5,8.5,8.5h102.4c4.7,0,8.5-3.8,8.5-8.5v-34.1
			C409.6,319.5,405.8,315.7,401.1,315.7z M392.5,349.9h-85.3v-17.1h85.3V349.9L392.5,349.9z"/>
	</g>
</g>
<g>
	<g>
		<path class="st0" d="M384,281.6h-68.3c-4.7,0-8.5,3.8-8.5,8.5v34.1c0,4.7,3.8,8.5,8.5,8.5H384c4.7,0,8.5-3.8,8.5-8.5v-34.1
			C392.5,285.4,388.7,281.6,384,281.6z M375.5,315.7h-51.2v-17.1h51.2V315.7z"/>
	</g>
</g>
<g>
	<g>
		<path class="st0" d="M264.5,315.7h-51.2c-4.7,0-8.5,3.8-8.5,8.5v34.1c0,4.7,3.8,8.5,8.5,8.5h51.2c4.7,0,8.5-3.8,8.5-8.5v-34.1
			C273.1,319.5,269.2,315.7,264.5,315.7z M256,349.9h-34.1v-17.1H256V349.9z"/>
	</g>
</g>
<g>
	<g>
		<path class="st0" d="M238.9,273.1c-4.7,0-8.5,3.8-8.5,8.5v42.7c0,4.7,3.8,8.5,8.5,8.5s8.5-3.8,8.5-8.5v-42.7
			C247.5,276.9,243.6,273.1,238.9,273.1z"/>
	</g>
</g>
<g>
	<g>
		<path class="st0" d="M278.2,283.3c-3.8-2.8-9.1-2.1-11.9,1.7l-25.6,34.1c-2.8,3.8-2.1,9.1,1.7,11.9c1.5,1.2,3.3,1.7,5.1,1.7
			c2.6,0,5.2-1.2,6.8-3.4l25.6-34.1C282.7,291.5,282,286.1,278.2,283.3z"/>
	</g>
</g>
<g>
	<g>
		<path class="st0" d="M237.2,319.2L211.6,285c-2.8-3.8-8.2-4.5-11.9-1.7c-3.8,2.8-4.5,8.2-1.7,11.9l25.6,34.1
			c1.7,2.2,4.2,3.4,6.8,3.4c1.8,0,3.6-0.6,5.1-1.7C239.3,328.3,240.1,322.9,237.2,319.2z"/>
	</g>
</g>
<g>
	<g>
		<path class="st0" d="M136.5,273.1h-34.1c-4.7,0-8.5,3.8-8.5,8.5v76.8c0,4.7,3.8,8.5,8.5,8.5h34.1c4.7,0,8.5-3.8,8.5-8.5v-76.8
			C145.1,276.9,141.2,273.1,136.5,273.1z M128,349.9h-17.1v-59.7H128V349.9z"/>
	</g>
</g>
<g>
	<g>
		<path class="st0" d="M170.7,290.1h-34.1c-4.7,0-8.5,3.8-8.5,8.5v59.7c0,4.7,3.8,8.5,8.5,8.5h34.1c4.7,0,8.5-3.8,8.5-8.5v-59.7
			C179.2,293.9,175.4,290.1,170.7,290.1z M162.1,349.9H145v-42.7h17.1V349.9z"/>
	</g>
</g>
<g>
	<g>
		<path class="st0" d="M230.4,85.3c-4.7,0-8.5,3.8-8.5,8.5s3.8,8.5,8.5,8.5s8.5,3.8,8.5,8.5s-3.8,8.5-8.5,8.5s-8.5-3.8-8.5-8.5
			s-3.8-8.5-8.5-8.5s-8.5,3.8-8.5,8.5c0,14.1,11.5,25.6,25.6,25.6S256,125,256,110.9S244.5,85.3,230.4,85.3z"/>
	</g>
</g>
<g>
	<g>
		<path class="st0" d="M298.7,85.3c-4.7,0-8.5,3.8-8.5,8.5s3.8,8.5,8.5,8.5s8.5,3.8,8.5,8.5s-3.8,8.5-8.5,8.5s-8.5-3.8-8.5-8.5
			s-3.8-8.5-8.5-8.5s-8.5,3.8-8.5,8.5c0,14.1,11.5,25.6,25.6,25.6s25.6-11.5,25.6-25.6S312.8,85.3,298.7,85.3z"/>
	</g>
</g>
</svg>
