<?xml version="1.0" encoding="utf-8"?>
<!-- Generator: Adobe Illustrator 23.0.6, SVG Export Plug-In . SVG Version: 6.00 Build 0)  -->
<svg version="1.1" id="Capa_1" xmlns="http://www.w3.org/2000/svg" xmlns:xlink="http://www.w3.org/1999/xlink" x="0px" y="0px"
	 viewBox="0 0 512 512" style="enable-background:new 0 0 512 512;" xml:space="preserve">
<style type="text/css">
</style>
<g>
	<g>
		<path class="st0" d="M486.6,191.2h-10.2v-37.8c0-22.3-18.2-40.5-40.5-40.5H289c-13.6,0-25.7,6.8-33,17.1
			c-7.4-10.3-19.4-17.1-33-17.1h-92.3c-4.1,0-7.5,3.4-7.5,7.5s3.4,7.5,7.5,7.5H223c14.1,0,25.5,11.5,25.5,25.5v75
			c-0.2-0.2-0.3-0.3-0.5-0.4c-8.9-8.3-20.9-13.1-33.1-13.1H90c-0.7-10.1-7.5-18.9-17-22.3c-2.7-0.9-5.5-1.4-8.3-1.4H50.5v-37.8
			c0-14.1,11.5-25.5,25.5-25.5h24.6c4.1,0,7.5-3.4,7.5-7.5s-3.4-7.5-7.5-7.5H76.1c-22.3,0-40.5,18.2-40.5,40.5v37.8H25.4
			c-14,0-25.4,11.4-25.4,25.4v78.3c0,29.1,23.7,52.8,52.8,52.8h3.8l-8.2,22.1c-5.2,13.9,5.5,29.2,20.3,29.2h12.1
			c6.8,0,13.2-3.2,17.3-8.6l32.3-42.7h251.2l32.3,42.7c4.1,5.4,10.5,8.6,17.3,8.6h12.1c14.9,0,25.5-15.3,20.3-29.2l-8.2-22.1h3.8
			c29.1,0,52.8-23.7,52.8-52.8v-78.3C512,202.6,500.6,191.2,486.6,191.2z M263.5,153.4c0-14.1,11.5-25.5,25.5-25.5h146.9
			c14.1,0,25.5,11.5,25.5,25.5v37.8h-14.1c-10,0-19.5,6.4-23.4,15.6c-1.1,2.6-1.7,5.3-1.9,8.1H297.1c-12.4,0-24.7,5-33.6,13.5V153.4
			L263.5,153.4z M90,229.9h124.9c18.5,0,33.6,15.1,33.6,33.6v10.7H90V229.9z M86.1,381.5c-1.3,1.7-3.2,2.7-5.3,2.7c0,0-12,0-12.1,0
			c-4.6,0-7.9-4.7-6.3-9l10.2-27.3h39L86.1,381.5z M443.3,384.1h-12.1c-2.1,0-4.1-1-5.3-2.7l-25.5-33.7h39c0,0,10.1,27.2,10.2,27.3
			C451.1,379.4,447.9,384.1,443.3,384.1z M459.2,332.8H52.8c-20.9,0-37.8-17-37.8-37.8v-78.3c0-5.7,4.7-10.4,10.4-10.4h39.3
			c5.7,0,10.4,4.7,10.4,10.4v65.1c0,4.1,3.4,7.5,7.5,7.5H358c4.1,0,7.5-3.4,7.5-7.5s-3.4-7.5-7.5-7.5h-94.5v-10.7
			c0-18.5,15.1-33.6,33.6-33.6H422v44.2h-34c-4.1,0-7.5,3.4-7.5,7.5s3.4,7.5,7.5,7.5h41.4c4.1,0,7.5-3.4,7.5-7.5v-65.1
			c0-5.7,4.7-10.4,10.4-10.4h39.3c5.7,0,10.4,4.7,10.4,10.4v78.3l0,0C497,315.8,480,332.8,459.2,332.8z"/>
	</g>
</g>
</svg>
