<?xml version="1.0" encoding="utf-8"?>
<!-- Generator: Adobe Illustrator 23.0.6, SVG Export Plug-In . SVG Version: 6.00 Build 0)  -->
<svg version="1.1" id="Слой_1" xmlns="http://www.w3.org/2000/svg" xmlns:xlink="http://www.w3.org/1999/xlink" x="0px" y="0px"
	 viewBox="0 0 512 512" style="enable-background:new 0 0 512 512;" xml:space="preserve">
<style type="text/css">
</style>
<path class="st0" d="M504,156H8c-4.4,0-8-3.6-8-8v-32c0-4.4,3.6-8,8-8h496c4.4,0,8,3.6,8,8v32C512,152.4,508.4,156,504,156z M16,140
	h480v-16H16V140z"/>
<path class="st0" d="M16,404.2c-4.4,0-8-3.6-8-8V149.4c0-4.4,3.6-8,8-8s8,3.6,8,8v246.7C24,400.6,20.4,404.2,16,404.2z"/>
<path class="st0" d="M40,404.2c-4.4,0-8-3.6-8-8V149.4c0-4.4,3.6-8,8-8s8,3.6,8,8v246.7C48,400.6,44.4,404.2,40,404.2z"/>
<path class="st0" d="M472,404.2c-4.4,0-8-3.6-8-8V149.4c0-4.4,3.6-8,8-8s8,3.6,8,8v246.7C480,400.6,476.4,404.2,472,404.2z"/>
<path class="st0" d="M496,404.2c-4.4,0-8-3.6-8-8V149.4c0-4.4,3.6-8,8-8s8,3.6,8,8v246.7C504,400.6,500.4,404.2,496,404.2z"/>
<path class="st0" d="M40,404.2H16c-4.4,0-8-3.6-8-8s3.6-8,8-8h24c4.4,0,8,3.6,8,8S44.4,404.2,40,404.2z"/>
<path class="st0" d="M496,404.2h-24c-4.4,0-8-3.6-8-8s3.6-8,8-8h24c4.4,0,8,3.6,8,8S500.4,404.2,496,404.2z"/>
<path class="st0" d="M472,268.1H40c-4.4,0-8-3.6-8-8s3.6-8,8-8h432c4.4,0,8,3.6,8,8S476.4,268.1,472,268.1z"/>
<path class="st0" d="M472,292.1H40c-4.4,0-8-3.6-8-8s3.6-8,8-8h432c4.4,0,8,3.6,8,8C480,288.6,476.4,292.1,472,292.1z"/>
<path class="st0" d="M72,268.1c-4.4,0-8-3.6-8-8c0-22.1,17.9-40,40-40c4.4,0,8,3.6,8,8s-3.6,8-8,8c-13.2,0-24,10.8-24,24
	C80,264.6,76.4,268.1,72,268.1z"/>
<path class="st0" d="M152,268.1c-4.4,0-8-3.6-8-8c0-13.2-10.8-24-24-24c-4.4,0-8-3.6-8-8s3.6-8,8-8c22.1,0,40,17.9,40,40
	C160,264.6,156.4,268.1,152,268.1z"/>
<path class="st0" d="M80,247c-4.4,0-8-3.6-8-8v-42.8c0-4.4,3.6-8,8-8s8,3.6,8,8V239C88,243.4,84.4,247,80,247z"/>
<path class="st0" d="M144,247c-4.4,0-8-3.6-8-8v-42.8c0-4.4,3.6-8,8-8s8,3.6,8,8V239C152,243.4,148.4,247,144,247z"/>
<path class="st0" d="M128,204.1H96c-4.4,0-8-3.6-8-8s3.6-8,8-8h32c4.4,0,8,3.6,8,8C136,200.6,132.4,204.1,128,204.1z"/>
<path class="st0" d="M96,204.1H80c-4.4,0-8-3.6-8-8s3.6-8,8-8h16c4.4,0,8,3.6,8,8C104,200.6,100.4,204.1,96,204.1z"/>
<path class="st0" d="M144,204.1h-16c-4.4,0-8-3.6-8-8s3.6-8,8-8h16c4.4,0,8,3.6,8,8C152,200.6,148.4,204.1,144,204.1z"/>
<path class="st0" d="M120,236.1h-16c-4.4,0-8-3.6-8-8s3.6-8,8-8h16c4.4,0,8,3.6,8,8C128,232.6,124.4,236.1,120,236.1z"/>
<path class="st0" d="M176,268.1c-4.4,0-8-3.6-8-8c0-22.1,17.9-40,40-40c4.4,0,8,3.6,8,8s-3.6,8-8,8c-13.2,0-24,10.8-24,24
	C184,264.6,180.4,268.1,176,268.1z"/>
<path class="st0" d="M256,268.1c-4.4,0-8-3.6-8-8c0-13.2-10.8-24-24-24c-4.4,0-8-3.6-8-8s3.6-8,8-8c22.1,0,40,17.9,40,40
	C264,264.6,260.4,268.1,256,268.1z"/>
<path class="st0" d="M184,247c-4.4,0-8-3.6-8-8v-42.8c0-4.4,3.6-8,8-8s8,3.6,8,8V239C192,243.4,188.4,247,184,247z"/>
<path class="st0" d="M248,247c-4.4,0-8-3.6-8-8v-42.8c0-4.4,3.6-8,8-8s8,3.6,8,8V239C256,243.4,252.4,247,248,247z"/>
<path class="st0" d="M232,204.1h-32c-4.4,0-8-3.6-8-8s3.6-8,8-8h32c4.4,0,8,3.6,8,8C240,200.6,236.4,204.1,232,204.1z"/>
<path class="st0" d="M200,204.1h-16c-4.4,0-8-3.6-8-8s3.6-8,8-8h16c4.4,0,8,3.6,8,8C208,200.6,204.4,204.1,200,204.1z"/>
<path class="st0" d="M248,204.1h-16c-4.4,0-8-3.6-8-8s3.6-8,8-8h16c4.4,0,8,3.6,8,8C256,200.6,252.4,204.1,248,204.1z"/>
<path class="st0" d="M224,236.1h-16c-4.4,0-8-3.6-8-8s3.6-8,8-8h16c4.4,0,8,3.6,8,8C232,232.6,228.4,236.1,224,236.1z"/>
<path class="st0" d="M256.2,388.1c-4.4,0-8-3.6-8-8c0-13.2,10.8-24,24-24c4.4,0,8,3.6,8,8s-3.6,8-8,8s-8,3.6-8,8
	C264.2,384.6,260.6,388.1,256.2,388.1z"/>
<path class="st0" d="M336.2,388.1c-4.4,0-8-3.6-8-8s-3.6-8-8-8s-8-3.6-8-8s3.6-8,8-8c13.2,0,24,10.8,24,24
	C344.2,384.6,340.6,388.1,336.2,388.1z"/>
<path class="st0" d="M336.2,404.2h-80c-4.4,0-8-3.6-8-8s3.6-8,8-8h80c4.4,0,8,3.6,8,8S340.6,404.2,336.2,404.2z"/>
<path class="st0" d="M320.8,372.1h-49.3c-4.4,0-8-3.6-8-8s3.6-8,8-8h49.3c4.4,0,8,3.6,8,8C328.8,368.6,325.3,372.1,320.8,372.1z"/>
<path class="st0" d="M272.2,372.1c-4.4,0-8-3.6-8-8v-48c0-4.4,3.6-8,8-8s8,3.6,8,8v48C280.2,368.6,276.6,372.1,272.2,372.1z"/>
<path class="st0" d="M320.2,372.1c-4.4,0-8-3.6-8-8v-48c0-4.4,3.6-8,8-8s8,3.6,8,8v48C328.2,368.6,324.6,372.1,320.2,372.1z"/>
<path class="st0" d="M256.2,404.2c-4.4,0-8-3.6-8-8v-16c0-4.4,3.6-8,8-8s8,3.6,8,8v16C264.2,400.6,260.6,404.2,256.2,404.2z"/>
<path class="st0" d="M336.2,404.2c-4.4,0-8-3.6-8-8v-16c0-4.4,3.6-8,8-8s8,3.6,8,8v16C344.2,400.6,340.6,404.2,336.2,404.2z"/>
<path class="st0" d="M328.2,324.1h-64c-4.4,0-8-3.6-8-8s3.6-8,8-8h64c4.4,0,8,3.6,8,8C336.2,320.6,332.6,324.1,328.2,324.1z"/>
<path class="st0" d="M360.2,388.1c-4.4,0-8-3.6-8-8c0-13.2,10.8-24,24-24c4.4,0,8,3.6,8,8s-3.6,8-8,8s-8,3.6-8,8
	C368.2,384.6,364.6,388.1,360.2,388.1z"/>
<path class="st0" d="M440.2,388.1c-4.4,0-8-3.6-8-8s-3.6-8-8-8s-8-3.6-8-8s3.6-8,8-8c13.2,0,24,10.8,24,24
	C448.2,384.6,444.6,388.1,440.2,388.1z"/>
<path class="st0" d="M440.2,404.2h-80c-4.4,0-8-3.6-8-8s3.6-8,8-8h80c4.4,0,8,3.6,8,8S444.6,404.2,440.2,404.2z"/>
<path class="st0" d="M424.8,372.1h-49.3c-4.4,0-8-3.6-8-8s3.6-8,8-8h49.3c4.4,0,8,3.6,8,8C432.8,368.6,429.3,372.1,424.8,372.1z"/>
<path class="st0" d="M376.2,372.1c-4.4,0-8-3.6-8-8v-48c0-4.4,3.6-8,8-8s8,3.6,8,8v48C384.2,368.6,380.6,372.1,376.2,372.1z"/>
<path class="st0" d="M424.2,372.1c-4.4,0-8-3.6-8-8v-48c0-4.4,3.6-8,8-8s8,3.6,8,8v48C432.2,368.6,428.6,372.1,424.2,372.1z"/>
<path class="st0" d="M360.2,404.2c-4.4,0-8-3.6-8-8v-16c0-4.4,3.6-8,8-8s8,3.6,8,8v16C368.2,400.6,364.6,404.2,360.2,404.2z"/>
<path class="st0" d="M440.2,404.2c-4.4,0-8-3.6-8-8v-16c0-4.4,3.6-8,8-8s8,3.6,8,8v16C448.2,400.6,444.6,404.2,440.2,404.2z"/>
<path class="st0" d="M432.2,324.2h-64c-4.4,0-8-3.6-8-8s3.6-8,8-8h64c4.4,0,8,3.6,8,8S436.6,324.2,432.2,324.2z"/>
</svg>
