<?xml version="1.0" encoding="utf-8"?>
<!-- Generator: Adobe Illustrator 23.0.6, SVG Export Plug-In . SVG Version: 6.00 Build 0)  -->
<svg version="1.1" id="Capa_1" xmlns="http://www.w3.org/2000/svg" xmlns:xlink="http://www.w3.org/1999/xlink" x="0px" y="0px"
	 viewBox="0 0 512 512" style="enable-background:new 0 0 512 512;" xml:space="preserve">
<style type="text/css">
</style>
<g>
	<g>
		<path class="st0" d="M454.8,375.5c-8.1-14.1-20.2-23.3-35.7-27.3c-3.7-1-7.5-1.6-11.2-1.8c0.5-5.3,0.7-10.7,0.7-16.1
			c0-6.8-0.4-13.7-1.2-20.4c27.6-3.8,49-26.8,49-54.5c0-30.3-25.6-55-57-55c-3.1,0-6.1,0.2-9.1,0.7c6.5-15.6,10-32.5,10-50.3
			c0-11.5-1.5-22.9-4.5-34c22.7-9.6,37.8-31.3,37.8-55.8c0-33.6-28.4-61-63.3-61c-21.3,0-41,10.4-52.6,27
			c-18.5-8.2-38.9-12.5-59.4-12.5S217.5,18.9,199,27c-11.6-16.7-31.3-27-52.6-27c-34.9,0-63.3,27.4-63.3,61
			c0,24.6,15.1,46.3,37.8,55.8c-3,11.1-4.5,22.5-4.5,34c0,17.8,3.6,34.7,10,50.3c-3-0.5-6-0.7-9.1-0.7c-31.4,0-57,24.7-57,55
			c0,27.7,21.3,50.7,49,54.5c-0.8,6.8-1.2,13.6-1.2,20.4c0,5.5,0.3,11.1,0.8,16.5c-0.4,0-0.8,0-1.2,0c-4.9,0-9.9,0.6-14.8,1.9
			c-15.6,4-27.6,13.2-35.7,27.3c-14.1,24.4-13.4,60.5-6.4,85.5c8.3,29.7,36.5,50.5,68.4,50.5c1.3,0,2.7,0,4-0.1c0.1,0,0.1,0,0.2,0
			s0.2,0,0.3,0c0.1,0,0.2,0,0.3,0c26.2-1.4,49.3-16.9,60.2-39.2c22.5,14,47.9,21.3,74.2,21.3c25.1,0,49.5-6.7,71.3-19.6
			c0.4,0.7,0.7,1.3,1.1,2c9.4,16.3,25,28,43.7,32.8c6,1.5,12.1,2.3,18.3,2.3c32,0,60.1-20.8,68.4-50.5
			C468.1,436,468.9,399.9,454.8,375.5z M103.1,61c0-22.6,19.4-41,43.3-41c17.1,0,32.6,9.5,39.6,24.3c1.2,2.5,3.3,4.4,5.9,5.2
			c2.6,0.9,5.4,0.6,7.8-0.6c17.9-9.4,38.2-14.4,58.7-14.4s40.8,5,58.7,14.4c2.4,1.3,5.2,1.5,7.8,0.6c2.6-0.9,4.7-2.8,5.9-5.2
			c7-14.8,22.5-24.3,39.6-24.3c23.9,0,43.3,18.4,43.3,41c0,16-9.7,30.2-24.5,36.9c-2.4-5.4-5.1-10.7-8.2-15.7
			c-2.9-4.7-9-6.2-13.7-3.4c-4.7,2.9-6.2,9-3.4,13.7c4.1,6.7,7.5,13.9,10.1,21.2c0.1,0.2,0.1,0.4,0.2,0.5c4.1,11.7,6.1,24,6.1,36.5
			c0,60.9-49.4,111-111.9,115.9v-74.4c14.5-5,24.7-20,24.7-33.3c0-7.3-3.4-24.2-34.7-24.2s-34.7,16.9-34.7,24.2
			c0,13.3,10.2,28.3,24.7,33.3v74.4c-62.6-4.9-111.9-55-111.9-115.9c0-12.7,2.1-25.2,6.3-37.1c0.9-2.7,0.7-5.6-0.6-8.1
			c-1.4-2.5-3.7-4.3-6.4-4.9C116.5,96.1,103.1,79.8,103.1,61z M258.4,344.1c-5.5,0-10,4.5-10,10v30.3c-33.9-4.9-60-34.1-60-69.3
			c0-14.3,4.4-28.1,12.4-39.8c17.6,7.5,37.1,11.7,57.6,11.7s40-4.2,57.6-11.7c8,11.6,12.4,25.5,12.4,39.8c0,35.2-26.1,64.4-60,69.3
			v-30.3C268.4,348.6,263.9,344.1,258.4,344.1z M243.7,159c0-1,0-1.4,1.7-2.2c1.5-0.8,5.3-2,13.1-2c7.8,0,11.5,1.3,13.1,2
			c1.7,0.8,1.7,1.2,1.7,2.2c0,5.6-6.9,15-14.7,15C250.5,174,243.7,164.7,243.7,159z M163.9,466.9c-6.7,11.6-17.9,20-31.4,23.4
			c-3.3,0.8-6.6,1.4-9.9,1.6l0,0c-1.1,0.1-2.2,0.1-3.3,0.1c-23,0-43.2-14.8-49.1-35.9c-5.7-20.2-6.7-50.8,4.4-70.1
			c5.4-9.4,13.1-15.3,23.4-17.9c3.3-0.8,6.6-1.3,9.8-1.3c3.4,0,6.7,0.5,9.8,1.3c0.2,0,0.3,0.1,0.5,0.1c25.8,7.4,44.3,40.9,50.4,63
			C171.9,443.3,170.2,456,163.9,466.9z M324.3,425.4c-2.8,9.8-3.2,19.9-1.4,29.7c-19.6,12.4-41.8,18.9-64.5,18.9
			c-24.5,0-48.1-7.5-68.7-21.6c1.1-8.7,0.5-17.7-1.9-26.4c-7.3-26-27.8-62.4-58.2-74.8c-0.9-6.9-1.4-13.9-1.4-20.9
			c0-9.5,0.8-19,2.5-28.2c0.5-3-0.3-6.2-2.4-8.5s-5.1-3.5-8.1-3.3c-0.9,0.1-1.8,0.1-2.8,0.1c-20.4,0-37-15.7-37-35s16.6-35,37-35
			c9.8,0,18.9,3.6,25.9,10c10.7,14.2,24.1,26.3,39.6,35.7c-9.4,14.5-14.5,31.5-14.5,49c0,49.6,40.4,90,90,90s90-40.4,90-90
			c0-17.5-5.1-34.5-14.5-49c15.5-9.4,28.9-21.5,39.6-35.7c7-6.5,16.1-10,25.9-10c20.4,0,37,15.7,37,35s-16.6,35-37,35
			c-0.9,0-1.8,0-2.8-0.1c-3.1-0.2-6.1,1-8.1,3.3c-2.1,2.3-2.9,5.4-2.4,8.5c1.7,9.2,2.5,18.7,2.5,28.2c0,6.2-0.4,12.4-1.1,18.5
			C354.3,359,331.9,398,324.3,425.4z M441.9,455.6c-5.9,21.1-26.1,35.9-49.1,35.9c-4.5,0-8.9-0.6-13.3-1.7
			c-13.5-3.5-24.6-11.8-31.4-23.4c-6.3-10.9-7.9-23.5-4.5-35.6c6.5-23.3,26.7-59.2,54.6-64c0.1,0,0.2,0,0.3-0.1
			c1.9-0.3,3.8-0.5,5.8-0.5c3.2,0,6.5,0.4,9.8,1.3c10.3,2.6,17.9,8.5,23.4,17.9C448.6,404.8,447.5,435.3,441.9,455.6z"/>
	</g>
</g>
<g>
	<g>
		<path class="st0" d="M321.3,113.3c-9.2,0-16.8,7.2-16.8,16s7.5,16,16.8,16s16.8-7.2,16.8-16C338,120.5,330.5,113.3,321.3,113.3z"
			/>
	</g>
</g>
<g>
	<g>
		<path class="st0" d="M195.5,113.3c-9.2,0-16.8,7.2-16.8,16s7.5,16,16.8,16c9.2,0,16.8-7.2,16.8-16
			C212.2,120.5,204.7,113.3,195.5,113.3z"/>
	</g>
</g>
<g>
	<g>
		<path class="st0" d="M360.9,56.6l-0.2-0.2c-4-3.8-10.3-3.8-14.2,0.2c-3.8,4-3.8,10.3,0.2,14.1l0.1,0.1c1.9,1.9,4.5,2.9,7,2.9
			c2.6,0,5.1-1,7.1-2.9C364.8,66.8,364.8,60.5,360.9,56.6z"/>
	</g>
</g>
<g>
	<g>
		<path class="st0" d="M258.4,315.1c-5.5,0-10,4.5-10,10v0.2c0,5.5,4.5,10,10,10s10-4.5,10-10v-0.2
			C268.4,319.6,263.9,315.1,258.4,315.1z"/>
	</g>
</g>
</svg>
