<?xml version="1.0" encoding="utf-8"?>
<!-- Generator: Adobe Illustrator 23.0.6, SVG Export Plug-In . SVG Version: 6.00 Build 0)  -->
<svg version="1.1" id="Capa_1" xmlns="http://www.w3.org/2000/svg" xmlns:xlink="http://www.w3.org/1999/xlink" x="0px" y="0px"
	 viewBox="0 0 592.9 592.9" style="enable-background:new 0 0 592.9 592.9;" xml:space="preserve">
<style type="text/css">
</style>
<g>
	<path class="st0" d="M412.1,254.4c12,0,39.7-3.8,39.7-36.8c0-42.1-26.8-22.9-26.8-47.3s10-31.6,10-31.6h4.8c2.9,0,4.8-1.9,4.8-4.8
		s-1.9-4.8-4.8-4.8h-57.4c-2.9,0-4.8,1.9-4.8,4.8s1.9,4.8,4.8,4.8h4.3c0,0,11.5,6.7,11.5,31.6c0,24.9-27.3,5.3-27.3,47.3
		c0,33,27.3,36.8,39.2,36.8H412.1z"/>
	<path class="st0" d="M0,406.4h592.9V263H0V406.4z M315.6,291.7h239.1v86.1H315.6V291.7z M38.2,291.7h239.1v86.1H38.2V291.7z"/>
	<rect x="19.1" y="425.5" class="st0" width="47.8" height="38.2"/>
	<rect x="525.9" y="425.5" class="st0" width="47.8" height="38.2"/>
</g>
</svg>
