<svg xmlns="http://www.w3.org/2000/svg" xmlns:xlink="http://www.w3.org/1999/xlink"><symbol id="catalog-1" viewBox="0 0 295.2 295.2"><style/><path class="st0" d="M233.3 214.3v-9.5H281c7.9 0 14.3-6.4 14.3-14.3v-76.2c0-7.9-6.4-14.3-14.3-14.3H147.6c-7.9 0-14.3 6.4-14.3 14.3v76.2c0 7.9 6.4 14.3 14.3 14.3h47.6v9.5h-81v-4.8c0-7.9-6.7-14.3-14.6-14.3h-16l-48.9-79.6c2.1-3.1 3.4-6.8 3.4-10.8 0-1.2-.1-2.3-.3-3.4l19.9-36.5C59.5 74 64.6 82 72.2 87.8l3.1 2.3 11.8-10.5c2.6.9 5.2 1.4 7.9 1.4 13.1 0 23.8-10.7 23.8-23.8 0-1.7-.3-3.5-.7-5.2l11.8-10.5-1.9-3.4C121.1 26.4 108.5 19 95 19c-.9 0-1.8.1-2.7.1l-16.1-16-35.4 29.5 6.6 8.7L16.1 86C7 87.5 0 95.3 0 104.8c0 7.1 4 13.3 9.8 16.6l39.4 73.9H33.1c-7.9 0-14 6.4-14 14.3v4.8H0V243h14.3v52.4h9.5V243h9.5v52.4h9.5V243h209.5v52.4h9.5V243h9.5v52.4h9.5V243h14.3v-28.6l-61.8-.1zm-90.4-100c0-2.6 2.1-4.8 4.8-4.8H281c2.6 0 4.8 2.1 4.8 4.8v61.9H142.9v-61.9zm52.3 80.9h-47.6c-2.6 0-4.8-2.1-4.8-4.8v-4.8h142.9v4.8c0 2.6-2.1 4.8-4.8 4.8h-85.7zm28.6 9.6v9.5h-19v-9.5h19zM96.2 71.4l12.7-11.3c-1.2 6-6.4 10.7-12.7 11.3zM95 28.6c8.9 0 17.2 4.2 22.6 11.1L75 77.5c-5.5-5.4-8.6-12.6-8.6-20.4 0-15.7 12.8-28.5 28.6-28.5zM75.6 16l5.7 5.7C71.7 25.3 64 32.8 59.9 42.2l-6.1-8.1L75.6 16zM53.4 49.3l1.1 1.5-22.1 40.4c-1.6-1.6-3.5-2.9-5.7-3.8l26.7-38.1zM9.5 104.8c0-5.3 4.3-9.5 9.5-9.5 5.3 0 9.5 4.3 9.5 9.5 0 5.3-4.3 9.5-9.5 9.5s-9.5-4.3-9.5-9.5zm12.3 18.7c2-.3 3.8-.9 5.5-1.7l45.1 73.4H60l-38.2-71.7zm11.3 81.3h66.7c2.6 0 5 2.1 5 4.8v4.8H28.6v-4.8c0-2.7 1.8-4.8 4.5-4.8zm252.6 28.5H9.5v-9.5h276.2v9.5z"/><path class="st0" d="M138.1 81h152.4v9.5H138.1zm66.7-81h-38.1v76.2h38.1V0zm-9.6 66.7h-19v-19h19v19zm0-28.6h-19V9.5h19v28.6z"/><circle class="st0" cx="185.7" cy="57.1" r="4.8"/><path class="st0" d="M247.6 0h-38.1v76.2h38.1V0zM219 9.5h19v28.6h-19V9.5zm19.1 57.2h-19v-19h19v19z"/><circle class="st0" cx="228.6" cy="57.1" r="4.8"/><path class="st0" d="M290.5 0h-38.1v76.2h38.1V0zm-28.6 9.5h19v28.6h-19V9.5zM281 66.7h-19v-19h19v19z"/><circle class="st0" cx="271.4" cy="57.1" r="4.8"/></symbol><symbol id="catalog-10" viewBox="0 0 512 512"><style/><path class="st0" d="M454.8 375.5c-8.1-14.1-20.2-23.3-35.7-27.3-3.7-1-7.5-1.6-11.2-1.8.5-5.3.7-10.7.7-16.1 0-6.8-.4-13.7-1.2-20.4 27.6-3.8 49-26.8 49-54.5 0-30.3-25.6-55-57-55-3.1 0-6.1.2-9.1.7 6.5-15.6 10-32.5 10-50.3 0-11.5-1.5-22.9-4.5-34 22.7-9.6 37.8-31.3 37.8-55.8 0-33.6-28.4-61-63.3-61-21.3 0-41 10.4-52.6 27-18.5-8.2-38.9-12.5-59.4-12.5S217.5 18.9 199 27c-11.6-16.7-31.3-27-52.6-27-34.9 0-63.3 27.4-63.3 61 0 24.6 15.1 46.3 37.8 55.8-3 11.1-4.5 22.5-4.5 34 0 17.8 3.6 34.7 10 50.3-3-.5-6-.7-9.1-.7-31.4 0-57 24.7-57 55 0 27.7 21.3 50.7 49 54.5-.8 6.8-1.2 13.6-1.2 20.4 0 5.5.3 11.1.8 16.5h-1.2c-4.9 0-9.9.6-14.8 1.9-15.6 4-27.6 13.2-35.7 27.3-14.1 24.4-13.4 60.5-6.4 85.5 8.3 29.7 36.5 50.5 68.4 50.5 1.3 0 2.7 0 4-.1h.8c26.2-1.4 49.3-16.9 60.2-39.2 22.5 14 47.9 21.3 74.2 21.3 25.1 0 49.5-6.7 71.3-19.6.4.7.7 1.3 1.1 2 9.4 16.3 25 28 43.7 32.8 6 1.5 12.1 2.3 18.3 2.3 32 0 60.1-20.8 68.4-50.5 6.9-25 7.7-61.1-6.4-85.5zM103.1 61c0-22.6 19.4-41 43.3-41 17.1 0 32.6 9.5 39.6 24.3 1.2 2.5 3.3 4.4 5.9 5.2 2.6.9 5.4.6 7.8-.6 17.9-9.4 38.2-14.4 58.7-14.4s40.8 5 58.7 14.4c2.4 1.3 5.2 1.5 7.8.6 2.6-.9 4.7-2.8 5.9-5.2 7-14.8 22.5-24.3 39.6-24.3 23.9 0 43.3 18.4 43.3 41 0 16-9.7 30.2-24.5 36.9-2.4-5.4-5.1-10.7-8.2-15.7-2.9-4.7-9-6.2-13.7-3.4-4.7 2.9-6.2 9-3.4 13.7 4.1 6.7 7.5 13.9 10.1 21.2.1.2.1.4.2.5 4.1 11.7 6.1 24 6.1 36.5 0 60.9-49.4 111-111.9 115.9v-74.4c14.5-5 24.7-20 24.7-33.3 0-7.3-3.4-24.2-34.7-24.2s-34.7 16.9-34.7 24.2c0 13.3 10.2 28.3 24.7 33.3v74.4c-62.6-4.9-111.9-55-111.9-115.9 0-12.7 2.1-25.2 6.3-37.1.9-2.7.7-5.6-.6-8.1-1.4-2.5-3.7-4.3-6.4-4.9-19.3-4.5-32.7-20.8-32.7-39.6zm155.3 283.1c-5.5 0-10 4.5-10 10v30.3c-33.9-4.9-60-34.1-60-69.3 0-14.3 4.4-28.1 12.4-39.8 17.6 7.5 37.1 11.7 57.6 11.7s40-4.2 57.6-11.7c8 11.6 12.4 25.5 12.4 39.8 0 35.2-26.1 64.4-60 69.3v-30.3c0-5.5-4.5-10-10-10zM243.7 159c0-1 0-1.4 1.7-2.2 1.5-.8 5.3-2 13.1-2s11.5 1.3 13.1 2c1.7.8 1.7 1.2 1.7 2.2 0 5.6-6.9 15-14.7 15-8.1 0-14.9-9.3-14.9-15zm-79.8 307.9c-6.7 11.6-17.9 20-31.4 23.4-3.3.8-6.6 1.4-9.9 1.6-1.1.1-2.2.1-3.3.1-23 0-43.2-14.8-49.1-35.9-5.7-20.2-6.7-50.8 4.4-70.1 5.4-9.4 13.1-15.3 23.4-17.9 3.3-.8 6.6-1.3 9.8-1.3 3.4 0 6.7.5 9.8 1.3.2 0 .3.1.5.1 25.8 7.4 44.3 40.9 50.4 63 3.4 12.1 1.7 24.8-4.6 35.7zm160.4-41.5c-2.8 9.8-3.2 19.9-1.4 29.7-19.6 12.4-41.8 18.9-64.5 18.9-24.5 0-48.1-7.5-68.7-21.6 1.1-8.7.5-17.7-1.9-26.4-7.3-26-27.8-62.4-58.2-74.8-.9-6.9-1.4-13.9-1.4-20.9 0-9.5.8-19 2.5-28.2.5-3-.3-6.2-2.4-8.5s-5.1-3.5-8.1-3.3c-.9.1-1.8.1-2.8.1-20.4 0-37-15.7-37-35s16.6-35 37-35c9.8 0 18.9 3.6 25.9 10 10.7 14.2 24.1 26.3 39.6 35.7-9.4 14.5-14.5 31.5-14.5 49 0 49.6 40.4 90 90 90s90-40.4 90-90c0-17.5-5.1-34.5-14.5-49 15.5-9.4 28.9-21.5 39.6-35.7 7-6.5 16.1-10 25.9-10 20.4 0 37 15.7 37 35s-16.6 35-37 35c-.9 0-1.8 0-2.8-.1-3.1-.2-6.1 1-8.1 3.3-2.1 2.3-2.9 5.4-2.4 8.5 1.7 9.2 2.5 18.7 2.5 28.2 0 6.2-.4 12.4-1.1 18.5-33.2 10.2-55.6 49.2-63.2 76.6zm117.6 30.2c-5.9 21.1-26.1 35.9-49.1 35.9-4.5 0-8.9-.6-13.3-1.7-13.5-3.5-24.6-11.8-31.4-23.4-6.3-10.9-7.9-23.5-4.5-35.6 6.5-23.3 26.7-59.2 54.6-64 .1 0 .2 0 .3-.1 1.9-.3 3.8-.5 5.8-.5 3.2 0 6.5.4 9.8 1.3 10.3 2.6 17.9 8.5 23.4 17.9 11.1 19.4 10 49.9 4.4 70.2z"/><path class="st0" d="M321.3 113.3c-9.2 0-16.8 7.2-16.8 16s7.5 16 16.8 16 16.8-7.2 16.8-16c-.1-8.8-7.6-16-16.8-16zm-125.8 0c-9.2 0-16.8 7.2-16.8 16s7.5 16 16.8 16c9.2 0 16.8-7.2 16.8-16-.1-8.8-7.6-16-16.8-16zm165.4-56.7l-.2-.2c-4-3.8-10.3-3.8-14.2.2-3.8 4-3.8 10.3.2 14.1l.1.1c1.9 1.9 4.5 2.9 7 2.9 2.6 0 5.1-1 7.1-2.9 3.9-4 3.9-10.3 0-14.2zM258.4 315.1c-5.5 0-10 4.5-10 10v.2c0 5.5 4.5 10 10 10s10-4.5 10-10v-.2c0-5.5-4.5-10-10-10z"/></symbol><symbol id="catalog-11" viewBox="0 0 512 512"><style/><g id="Wardrobe-2"><path class="st0" d="M456 376h16v16h-16v-16zm-16 24h32v16h-32v-16zm-16 24h48v16h-48v-16zM64 224h16v32H64v-32zm64 0h16v32h-16v-32zm304 0h16v32h-16v-32zm-64 0h16v32h-16v-32zm-128 64h32v16h-32v-16zm0 64h32v16h-32v-16zm0 64h32v16h-32v-16zm8.4-341.6l11.3-11.3 29.2 29.2-11.3 11.3-29.2-29.2zm24-24l11.3-11.3 29.2 29.2-11.3 11.3-29.2-29.2z"/><path class="st0" d="M472 16H40c-13.3 0-24 10.7-24 24v448c0 4.4 3.6 8 8 8h464c4.4 0 8-3.6 8-8V40c0-13.3-10.7-24-24-24zm8 24v408h-64V32h56c4.4 0 8 3.6 8 8zM192 272h128v48H192v-48zm0 64h128v48H192v-48zm128-80H192V32h128v224zM176 448h-64V32h64v416zm16-48h128v48H192v-48zM336 32h64v416h-64V32zM40 32h56v416H32V40c0-4.4 3.6-8 8-8zm-8 448v-16h448v16H32z"/></g></symbol><symbol id="catalog-2" viewBox="0 0 354 354"><style/><path class="st0" d="M303.6 118.8V52c0-38.4-26.8-52-52-52H102C76.8 0 50 13.6 50 52v66.8C31.6 123.6 18 140 18 160v107.2c0 31.6 21.2 44 42 45.2v27.2c0 8 6.4 14.4 14.4 14.4h14.8c8 0 14.4-6.4 14.4-14.4v-27.2h146.8v27.2c0 8 6.4 14.4 14.4 14.4h14.8c8 0 14.4-6.4 14.4-14.4v-27.2c30.8-1.6 42-24 42-45.2V159.6c-.8-19.6-14.4-36.4-32.4-40.8zM64.4 52c0-32.8 23.6-38 37.6-38h149.6c14 0 37.6 4.8 37.6 37.6v65.6c-21.6 2-38.8 20-38.8 42.4v10H103.2v-10c0-22.4-17.2-40.4-38.8-42.4V52zM250 184v49.6H103.2V184H250zM89.2 339.6H74.4v-27.2h14.8v27.2zm190 0h-14.8v-27.2h14.8v27.2zm42.4-72.4h-.4c0 14-5.2 31.2-31.2 31.2H63.6c-14 0-31.2-5.2-31.2-31.2V159.6c0-15.6 12.8-28.4 28.4-28.4s28.4 12.8 28.4 28.4v81.2c0 4 3.2 7.2 7.2 7.2h161.2c4 0 7.2-3.2 7.2-7.2v-81.2c0-15.6 12.8-28.4 28.4-28.4s28.4 12.8 28.4 28.4v107.6z"/></symbol><symbol id="catalog-3" viewBox="0 0 480 480"><style/><path class="st0" d="M472 272h-8v-24c0-15.9-9.4-30.3-24-36.6V88c0-3.2-1.9-6.1-4.8-7.3 3.1-5 4.8-10.8 4.8-16.7 0-17.7-14.3-32-32-32s-32 14.3-32 32c0 5.6 1.6 11.2 4.4 16H99.6c2.9-4.8 4.4-10.4 4.4-16 0-17.7-14.3-32-32-32S40 46.3 40 64c0 5.9 1.7 11.7 4.8 16.7-2.9 1.2-4.8 4.1-4.8 7.3v123.4c-14.6 6.4-24 20.7-24 36.6v24H8c-4.4 0-8 3.6-8 8v112c0 4.4 3.6 8 8 8h8v40c0 4.4 3.6 8 8 8h32c4.4 0 8-3.6 8-8v-40h352v40c0 4.4 3.6 8 8 8h32c4.4 0 8-3.6 8-8v-40h8c4.4 0 8-3.6 8-8V280c0-4.4-3.6-8-8-8zM408 48c8.8 0 16 7.2 16 16s-7.2 16-16 16-16-7.2-16-16 7.2-16 16-16zM72 48c8.8 0 16 7.2 16 16s-7.2 16-16 16-16-7.2-16-16 7.2-16 16-16zM56 96h368v112h-32.2c5.3-6.9 8.2-15.3 8.2-24v-16c0-22.1-17.9-40-40-40h-64c-22.1 0-40 17.9-40 40v16c0 8.7 2.9 17.1 8.2 24h-48.4c5.3-6.9 8.2-15.3 8.2-24v-16c0-22.1-17.9-40-40-40h-64c-22.1 0-40 17.9-40 40v16c0 8.7 2.9 17.1 8.2 24H56V96zm328 72v16c0 13.3-10.7 24-24 24h-64c-13.3 0-24-10.7-24-24v-16c0-13.3 10.7-24 24-24h64c13.3 0 24 10.7 24 24zm-176 0v16c0 13.3-10.7 24-24 24h-64c-13.3 0-24-10.7-24-24v-16c0-13.3 10.7-24 24-24h64c13.3 0 24 10.7 24 24zM32 248c0-13.3 10.7-24 24-24h368c13.3 0 24 10.7 24 24v24H32v-24zm16 184H32v-32h16v32zm400 0h-16v-32h16v32zm16-48H16v-96h448v96z"/><path class="st0" d="M72 352H40c-4.4 0-8 3.6-8 8s3.6 8 8 8h32c4.4 0 8-3.6 8-8s-3.6-8-8-8zm368 0H104c-4.4 0-8 3.6-8 8s3.6 8 8 8h336c4.4 0 8-3.6 8-8s-3.6-8-8-8z"/></symbol><symbol id="catalog-4" viewBox="0 0 33 33"><style/><path class="st0" d="M28.2 22.3H4.8c-.3 0-.5-.2-.5-.5V15c0-1.1.9-2.1 2.1-2.1h20.3c1.1 0 2.1.9 2.1 2.1v6.8c-.1.3-.3.5-.6.5zm-22.9-1h22.4V15c0-.6-.5-1.1-1.1-1.1H6.4c-.6 0-1.1.5-1.1 1.1v6.3z"/><path class="st0" d="M26.6 30.5H6.4c-1.1 0-2.1-.9-2.1-2.1v-6.8c0-.3.2-.5.5-.5h23.4c.3 0 .5.2.5.5v6.8c0 1.2-.9 2.1-2.1 2.1zM5.3 22.2v6.3c0 .6.5 1.1 1.1 1.1h20.3c.6 0 1.1-.5 1.1-1.1v-6.3H5.3z"/><path class="st0" d="M8 33h-.2c-.3-.1-.4-.4-.3-.7l1-2.5c.1-.3.4-.4.7-.3s.4.4.3.7l-1 2.5c-.1.2-.3.3-.5.3zm17 0c-.2 0-.4-.1-.5-.3l-1-2.5c-.1-.3 0-.5.3-.7.3-.1.5 0 .7.3l1 2.5c.1.3 0 .5-.3.7H25zm-7.3-15.9h-2.3c-.3 0-.5-.2-.5-.5s.2-.5.5-.5h2.3c.3 0 .5.2.5.5s-.3.5-.5.5zm0 8.2h-2.3c-.3 0-.5-.2-.5-.5s.2-.5.5-.5h2.3c.3 0 .5.2.5.5s-.3.5-.5.5zM17.2 14h-6.6c-.3 0-.5-.2-.5-.5v-2c0-.3.2-.5.5-.5h6.6c.3 0 .5.2.5.5v2c.1.2-.2.5-.5.5zm-6.1-1h5.7v-1h-5.6c-.1-.1-.1 1-.1 1zm7.2-6.6H9.5c-.2 0-.3-.1-.4-.2-.1-.2-.1-.3 0-.5L10.8.3c0-.2.2-.3.4-.3h5.4c.2 0 .4.1.5.3l1.7 5.4c0 .2 0 .3-.1.4-.1.2-.2.3-.4.3zm-8.1-1h7.4L16.2 1h-4.6l-1.4 4.4z"/><path class="st0" d="M13.9 11.9c-.3 0-.5-.2-.5-.5V5.9c0-.3.2-.5.5-.5s.5.2.5.5v5.6c0 .2-.2.4-.5.4zm2.6-3.8c-.3 0-.5-.2-.5-.5V5.9c0-.3.2-.5.5-.5s.5.2.5.5v1.7c0 .3-.2.5-.5.5z"/></symbol><symbol id="catalog-5" viewBox="0 0 512 512"><style/><path class="st0" d="M486.6 191.2h-10.2v-37.8c0-22.3-18.2-40.5-40.5-40.5H289c-13.6 0-25.7 6.8-33 17.1-7.4-10.3-19.4-17.1-33-17.1h-92.3c-4.1 0-7.5 3.4-7.5 7.5s3.4 7.5 7.5 7.5H223c14.1 0 25.5 11.5 25.5 25.5v75c-.2-.2-.3-.3-.5-.4-8.9-8.3-20.9-13.1-33.1-13.1H90c-.7-10.1-7.5-18.9-17-22.3-2.7-.9-5.5-1.4-8.3-1.4H50.5v-37.8c0-14.1 11.5-25.5 25.5-25.5h24.6c4.1 0 7.5-3.4 7.5-7.5s-3.4-7.5-7.5-7.5H76.1c-22.3 0-40.5 18.2-40.5 40.5v37.8H25.4c-14 0-25.4 11.4-25.4 25.4v78.3c0 29.1 23.7 52.8 52.8 52.8h3.8l-8.2 22.1c-5.2 13.9 5.5 29.2 20.3 29.2h12.1c6.8 0 13.2-3.2 17.3-8.6l32.3-42.7h251.2l32.3 42.7c4.1 5.4 10.5 8.6 17.3 8.6h12.1c14.9 0 25.5-15.3 20.3-29.2l-8.2-22.1h3.8c29.1 0 52.8-23.7 52.8-52.8v-78.3c0-14-11.4-25.4-25.4-25.4zm-223.1-37.8c0-14.1 11.5-25.5 25.5-25.5h146.9c14.1 0 25.5 11.5 25.5 25.5v37.8h-14.1c-10 0-19.5 6.4-23.4 15.6-1.1 2.6-1.7 5.3-1.9 8.1H297.1c-12.4 0-24.7 5-33.6 13.5v-75zM90 229.9h124.9c18.5 0 33.6 15.1 33.6 33.6v10.7H90v-44.3zm-3.9 151.6c-1.3 1.7-3.2 2.7-5.3 2.7H68.7c-4.6 0-7.9-4.7-6.3-9l10.2-27.3h39l-25.5 33.6zm357.2 2.6h-12.1c-2.1 0-4.1-1-5.3-2.7l-25.5-33.7h39s10.1 27.2 10.2 27.3c1.5 4.4-1.7 9.1-6.3 9.1zm15.9-51.3H52.8c-20.9 0-37.8-17-37.8-37.8v-78.3c0-5.7 4.7-10.4 10.4-10.4h39.3c5.7 0 10.4 4.7 10.4 10.4v65.1c0 4.1 3.4 7.5 7.5 7.5H358c4.1 0 7.5-3.4 7.5-7.5s-3.4-7.5-7.5-7.5h-94.5v-10.7c0-18.5 15.1-33.6 33.6-33.6H422v44.2h-34c-4.1 0-7.5 3.4-7.5 7.5s3.4 7.5 7.5 7.5h41.4c4.1 0 7.5-3.4 7.5-7.5v-65.1c0-5.7 4.7-10.4 10.4-10.4h39.3c5.7 0 10.4 4.7 10.4 10.4v78.3c0 20.9-17 37.9-37.8 37.9z"/></symbol><symbol id="catalog-6" viewBox="0 0 512 512"><style/><path class="st0" d="M504 156H8c-4.4 0-8-3.6-8-8v-32c0-4.4 3.6-8 8-8h496c4.4 0 8 3.6 8 8v32c0 4.4-3.6 8-8 8zM16 140h480v-16H16v16z"/><path class="st0" d="M16 404.2c-4.4 0-8-3.6-8-8V149.4c0-4.4 3.6-8 8-8s8 3.6 8 8v246.7c0 4.5-3.6 8.1-8 8.1zm24 0c-4.4 0-8-3.6-8-8V149.4c0-4.4 3.6-8 8-8s8 3.6 8 8v246.7c0 4.5-3.6 8.1-8 8.1zm432 0c-4.4 0-8-3.6-8-8V149.4c0-4.4 3.6-8 8-8s8 3.6 8 8v246.7c0 4.5-3.6 8.1-8 8.1zm24 0c-4.4 0-8-3.6-8-8V149.4c0-4.4 3.6-8 8-8s8 3.6 8 8v246.7c0 4.5-3.6 8.1-8 8.1z"/><path class="st0" d="M40 404.2H16c-4.4 0-8-3.6-8-8s3.6-8 8-8h24c4.4 0 8 3.6 8 8s-3.6 8-8 8zm456 0h-24c-4.4 0-8-3.6-8-8s3.6-8 8-8h24c4.4 0 8 3.6 8 8s-3.6 8-8 8zm-24-136.1H40c-4.4 0-8-3.6-8-8s3.6-8 8-8h432c4.4 0 8 3.6 8 8s-3.6 8-8 8zm0 24H40c-4.4 0-8-3.6-8-8s3.6-8 8-8h432c4.4 0 8 3.6 8 8 0 4.5-3.6 8-8 8z"/><path class="st0" d="M72 268.1c-4.4 0-8-3.6-8-8 0-22.1 17.9-40 40-40 4.4 0 8 3.6 8 8s-3.6 8-8 8c-13.2 0-24 10.8-24 24 0 4.5-3.6 8-8 8zm80 0c-4.4 0-8-3.6-8-8 0-13.2-10.8-24-24-24-4.4 0-8-3.6-8-8s3.6-8 8-8c22.1 0 40 17.9 40 40 0 4.5-3.6 8-8 8z"/><path class="st0" d="M80 247c-4.4 0-8-3.6-8-8v-42.8c0-4.4 3.6-8 8-8s8 3.6 8 8V239c0 4.4-3.6 8-8 8zm64 0c-4.4 0-8-3.6-8-8v-42.8c0-4.4 3.6-8 8-8s8 3.6 8 8V239c0 4.4-3.6 8-8 8zm-16-42.9H96c-4.4 0-8-3.6-8-8s3.6-8 8-8h32c4.4 0 8 3.6 8 8 0 4.5-3.6 8-8 8z"/><path class="st0" d="M96 204.1H80c-4.4 0-8-3.6-8-8s3.6-8 8-8h16c4.4 0 8 3.6 8 8 0 4.5-3.6 8-8 8zm48 0h-16c-4.4 0-8-3.6-8-8s3.6-8 8-8h16c4.4 0 8 3.6 8 8 0 4.5-3.6 8-8 8zm-24 32h-16c-4.4 0-8-3.6-8-8s3.6-8 8-8h16c4.4 0 8 3.6 8 8 0 4.5-3.6 8-8 8zm56 32c-4.4 0-8-3.6-8-8 0-22.1 17.9-40 40-40 4.4 0 8 3.6 8 8s-3.6 8-8 8c-13.2 0-24 10.8-24 24 0 4.5-3.6 8-8 8zm80 0c-4.4 0-8-3.6-8-8 0-13.2-10.8-24-24-24-4.4 0-8-3.6-8-8s3.6-8 8-8c22.1 0 40 17.9 40 40 0 4.5-3.6 8-8 8z"/><path class="st0" d="M184 247c-4.4 0-8-3.6-8-8v-42.8c0-4.4 3.6-8 8-8s8 3.6 8 8V239c0 4.4-3.6 8-8 8zm64 0c-4.4 0-8-3.6-8-8v-42.8c0-4.4 3.6-8 8-8s8 3.6 8 8V239c0 4.4-3.6 8-8 8zm-16-42.9h-32c-4.4 0-8-3.6-8-8s3.6-8 8-8h32c4.4 0 8 3.6 8 8 0 4.5-3.6 8-8 8z"/><path class="st0" d="M200 204.1h-16c-4.4 0-8-3.6-8-8s3.6-8 8-8h16c4.4 0 8 3.6 8 8 0 4.5-3.6 8-8 8zm48 0h-16c-4.4 0-8-3.6-8-8s3.6-8 8-8h16c4.4 0 8 3.6 8 8 0 4.5-3.6 8-8 8zm-24 32h-16c-4.4 0-8-3.6-8-8s3.6-8 8-8h16c4.4 0 8 3.6 8 8 0 4.5-3.6 8-8 8zm32.2 152c-4.4 0-8-3.6-8-8 0-13.2 10.8-24 24-24 4.4 0 8 3.6 8 8s-3.6 8-8 8-8 3.6-8 8c0 4.5-3.6 8-8 8zm80 0c-4.4 0-8-3.6-8-8s-3.6-8-8-8-8-3.6-8-8 3.6-8 8-8c13.2 0 24 10.8 24 24 0 4.5-3.6 8-8 8zm0 16.1h-80c-4.4 0-8-3.6-8-8s3.6-8 8-8h80c4.4 0 8 3.6 8 8s-3.6 8-8 8z"/><path class="st0" d="M320.8 372.1h-49.3c-4.4 0-8-3.6-8-8s3.6-8 8-8h49.3c4.4 0 8 3.6 8 8 0 4.5-3.5 8-8 8z"/><path class="st0" d="M272.2 372.1c-4.4 0-8-3.6-8-8v-48c0-4.4 3.6-8 8-8s8 3.6 8 8v48c0 4.5-3.6 8-8 8zm48 0c-4.4 0-8-3.6-8-8v-48c0-4.4 3.6-8 8-8s8 3.6 8 8v48c0 4.5-3.6 8-8 8zm-64 32.1c-4.4 0-8-3.6-8-8v-16c0-4.4 3.6-8 8-8s8 3.6 8 8v16c0 4.4-3.6 8-8 8zm80 0c-4.4 0-8-3.6-8-8v-16c0-4.4 3.6-8 8-8s8 3.6 8 8v16c0 4.4-3.6 8-8 8z"/><path class="st0" d="M328.2 324.1h-64c-4.4 0-8-3.6-8-8s3.6-8 8-8h64c4.4 0 8 3.6 8 8 0 4.5-3.6 8-8 8zm32 64c-4.4 0-8-3.6-8-8 0-13.2 10.8-24 24-24 4.4 0 8 3.6 8 8s-3.6 8-8 8-8 3.6-8 8c0 4.5-3.6 8-8 8zm80 0c-4.4 0-8-3.6-8-8s-3.6-8-8-8-8-3.6-8-8 3.6-8 8-8c13.2 0 24 10.8 24 24 0 4.5-3.6 8-8 8zm0 16.1h-80c-4.4 0-8-3.6-8-8s3.6-8 8-8h80c4.4 0 8 3.6 8 8s-3.6 8-8 8z"/><path class="st0" d="M424.8 372.1h-49.3c-4.4 0-8-3.6-8-8s3.6-8 8-8h49.3c4.4 0 8 3.6 8 8 0 4.5-3.5 8-8 8z"/><path class="st0" d="M376.2 372.1c-4.4 0-8-3.6-8-8v-48c0-4.4 3.6-8 8-8s8 3.6 8 8v48c0 4.5-3.6 8-8 8zm48 0c-4.4 0-8-3.6-8-8v-48c0-4.4 3.6-8 8-8s8 3.6 8 8v48c0 4.5-3.6 8-8 8zm-64 32.1c-4.4 0-8-3.6-8-8v-16c0-4.4 3.6-8 8-8s8 3.6 8 8v16c0 4.4-3.6 8-8 8zm80 0c-4.4 0-8-3.6-8-8v-16c0-4.4 3.6-8 8-8s8 3.6 8 8v16c0 4.4-3.6 8-8 8z"/><path class="st0" d="M432.2 324.2h-64c-4.4 0-8-3.6-8-8s3.6-8 8-8h64c4.4 0 8 3.6 8 8s-3.6 8-8 8z"/></symbol><symbol id="catalog-7" viewBox="0 0 512 512"><style/><path class="st0" d="M401.1 34.1c-4.7 0-8.5 3.8-8.5 8.5v34.1c0 4.7 3.8 8.5 8.5 8.5s8.5-3.8 8.5-8.5v-34c0-4.8-3.8-8.6-8.5-8.6zm-281.6 0c-4.7 0-8.5 3.8-8.5 8.5v34.1c0 4.7 3.8 8.5 8.5 8.5s8.5-3.8 8.5-8.5v-34c0-4.8-3.8-8.6-8.5-8.6zM51.2 443.7c-18.8 0-34.1 15.3-34.1 34.1S32.4 512 51.2 512s34.1-15.3 34.1-34.1-15.3-34.2-34.1-34.2zm0 51.2c-9.4 0-17.1-7.7-17.1-17.1s7.7-17.1 17.1-17.1 17.1 7.7 17.1 17.1-7.7 17.1-17.1 17.1z"/><path class="st0" d="M93.9 418.1H8.5c-4.7 0-8.5 3.8-8.5 8.5v25.6c0 4.7 3.8 8.5 8.5 8.5h85.3c4.7 0 8.5-3.8 8.5-8.5v-25.6c.1-4.7-3.7-8.5-8.4-8.5zm-8.6 25.6H17.1v-8.5h68.3l-.1 8.5z"/><path class="st0" d="M68.3 34.1H34.1c-4.7 0-8.5 3.8-8.5 8.5v384c0 4.7 3.8 8.5 8.5 8.5h34.1c4.7 0 8.5-3.8 8.5-8.5v-384c.1-4.7-3.7-8.5-8.4-8.5zm-8.6 384h-17V51.2h17.1l-.1 366.9zm401.1 25.6c-18.8 0-34.1 15.3-34.1 34.1S442 512 460.8 512s34.1-15.3 34.1-34.1-15.3-34.2-34.1-34.2zm0 51.2c-9.4 0-17.1-7.7-17.1-17.1s7.7-17.1 17.1-17.1 17.1 7.7 17.1 17.1-7.7 17.1-17.1 17.1z"/><path class="st0" d="M503.5 418.1h-85.3c-4.7 0-8.5 3.8-8.5 8.5v25.6c0 4.7 3.8 8.5 8.5 8.5h85.3c4.7 0 8.5-3.8 8.5-8.5v-25.6c0-4.7-3.8-8.5-8.5-8.5zm-8.6 25.6h-68.3v-8.5h68.3v8.5z"/><path class="st0" d="M477.9 34.1h-34.1c-4.7 0-8.5 3.8-8.5 8.5v384c0 4.7 3.8 8.5 8.5 8.5h34.1c4.7 0 8.5-3.8 8.5-8.5v-384c0-4.7-3.8-8.5-8.5-8.5zm-8.6 384h-17.1V51.2h17.1v366.9z"/><path class="st0" d="M486.4 0H25.6C11.5 0 0 11.5 0 25.6s11.5 25.6 25.6 25.6h460.8c14.1 0 25.6-11.5 25.6-25.6S500.5 0 486.4 0zm0 34.1H25.6c-4.7 0-8.5-3.8-8.5-8.5s3.8-8.5 8.5-8.5h460.8c4.7 0 8.5 3.8 8.5 8.5s-3.8 8.5-8.5 8.5z"/><path class="st0" d="M162.1 34.1c-4.7 0-8.5 3.8-8.5 8.5v51.2c0 4.7 3.8 8.5 8.5 8.5s8.5-3.8 8.5-8.5V42.7c.1-4.8-3.8-8.6-8.5-8.6zm0 85.4c-45.9 0-76.8 17.2-76.8 42.7v17.1c0 4.7 3.8 8.5 8.5 8.5h17.1v59.7c0 4.7 3.8 8.5 8.5 8.5h85.3c4.7 0 8.5-3.8 8.5-8.5v-59.7h17.1c4.7 0 8.5-3.8 8.5-8.5v-17.1c.1-25.6-30.7-42.7-76.7-42.7zm59.8 51.2h-17.1c-4.7 0-8.5 3.8-8.5 8.5v59.7H128v-59.7c0-4.7-3.8-8.5-8.5-8.5h-17.1v-8.5c0-12.4 20.9-25.6 59.7-25.6s59.7 13.2 59.7 25.6l.1 8.5z"/><path class="st0" d="M221.9 119.5c-11.4 0-22 1.1-31.7 3.2-3.9.9-6.7 4.3-6.7 8.3s2.8 7.5 6.7 8.3c19.3 4.2 31.7 13.2 31.7 22.8v8.5h-17.1c-4.7 0-8.5 3.8-8.5 8.5v68.3c0 4.7 3.8 8.5 8.5 8.5h59.7c4.7 0 8.5-3.8 8.5-8.5v-59.7h17.1c4.7 0 8.5-3.8 8.5-8.5v-17.1c.1-25.5-30.8-42.6-76.7-42.6zm59.7 51.2h-17.1c-4.7 0-8.5 3.8-8.5 8.5v59.7h-42.7v-51.2h17.1c4.7 0 8.5-3.8 8.5-8.5v-17.1c0-9.8-4.7-18.6-13.4-25.6 36.4.8 56 13.6 56 25.6v8.6h.1z"/><path class="st0" d="M281.6 119.5c-11.4 0-22 1.1-31.7 3.2-3.9.9-6.7 4.3-6.7 8.3s2.8 7.5 6.7 8.3c19.3 4.2 31.7 13.2 31.7 22.8v8.5h-17.1c-4.7 0-8.5 3.8-8.5 8.5v68.3c0 4.7 3.8 8.5 8.5 8.5h59.7c4.7 0 8.5-3.8 8.5-8.5v-59.7h17.1c4.7 0 8.5-3.8 8.5-8.5v-17.1c.1-25.5-30.8-42.6-76.7-42.6zm59.7 51.2h-17.1c-4.7 0-8.5 3.8-8.5 8.5v59.7H273v-51.2h17.1c4.7 0 8.5-3.8 8.5-8.5v-17.1c0-9.8-4.7-18.6-13.4-25.6 36.4.8 56 13.6 56 25.6l.1 8.6zM162.1 85.3c-4.7 0-8.5 3.8-8.5 8.5s3.8 8.5 8.5 8.5 8.5 3.8 8.5 8.5-3.8 8.5-8.5 8.5-8.5-3.8-8.5-8.5-3.8-8.5-8.5-8.5-8.5 3.8-8.5 8.5c0 14.1 11.5 25.6 25.6 25.6s25.6-11.5 25.6-25.6-11.6-25.5-25.7-25.5zm68.3-51.2c-4.7 0-8.5 3.8-8.5 8.5v51.2c0 4.7 3.8 8.5 8.5 8.5s8.5-3.8 8.5-8.5V42.7c0-4.8-3.8-8.6-8.5-8.6zm68.3 0c-4.7 0-8.5 3.8-8.5 8.5v51.2c0 4.7 3.8 8.5 8.5 8.5s8.5-3.8 8.5-8.5V42.7c0-4.8-3.8-8.6-8.5-8.6zm68.2 0c-4.7 0-8.5 3.8-8.5 8.5v51.2c0 4.7 3.8 8.5 8.5 8.5s8.5-3.8 8.5-8.5V42.7c.1-4.8-3.8-8.6-8.5-8.6zm76.8 315.8H68.3c-4.7 0-8.5 3.8-8.5 8.5v34.1c0 4.7 3.8 8.5 8.5 8.5h375.5c4.7 0 8.5-3.8 8.5-8.5v-34.1c0-4.7-3.9-8.5-8.6-8.5zm-8.5 34.1H76.8v-17.1h358.4V384z"/><path class="st0" d="M401.1 315.7H298.7c-4.7 0-8.5 3.8-8.5 8.5v34.1c0 4.7 3.8 8.5 8.5 8.5h102.4c4.7 0 8.5-3.8 8.5-8.5v-34.1c0-4.7-3.8-8.5-8.5-8.5zm-8.6 34.2h-85.3v-17.1h85.3v17.1z"/><path class="st0" d="M384 281.6h-68.3c-4.7 0-8.5 3.8-8.5 8.5v34.1c0 4.7 3.8 8.5 8.5 8.5H384c4.7 0 8.5-3.8 8.5-8.5v-34.1c0-4.7-3.8-8.5-8.5-8.5zm-8.5 34.1h-51.2v-17.1h51.2v17.1zm-111 0h-51.2c-4.7 0-8.5 3.8-8.5 8.5v34.1c0 4.7 3.8 8.5 8.5 8.5h51.2c4.7 0 8.5-3.8 8.5-8.5v-34.1c.1-4.7-3.8-8.5-8.5-8.5zm-8.5 34.2h-34.1v-17.1H256v17.1z"/><path class="st0" d="M238.9 273.1c-4.7 0-8.5 3.8-8.5 8.5v42.7c0 4.7 3.8 8.5 8.5 8.5s8.5-3.8 8.5-8.5v-42.7c.1-4.7-3.8-8.5-8.5-8.5z"/><path class="st0" d="M278.2 283.3c-3.8-2.8-9.1-2.1-11.9 1.7l-25.6 34.1c-2.8 3.8-2.1 9.1 1.7 11.9 1.5 1.2 3.3 1.7 5.1 1.7 2.6 0 5.2-1.2 6.8-3.4l25.6-34.1c2.8-3.7 2.1-9.1-1.7-11.9z"/><path class="st0" d="M237.2 319.2L211.6 285c-2.8-3.8-8.2-4.5-11.9-1.7-3.8 2.8-4.5 8.2-1.7 11.9l25.6 34.1c1.7 2.2 4.2 3.4 6.8 3.4 1.8 0 3.6-.6 5.1-1.7 3.8-2.7 4.6-8.1 1.7-11.8zm-100.7-46.1h-34.1c-4.7 0-8.5 3.8-8.5 8.5v76.8c0 4.7 3.8 8.5 8.5 8.5h34.1c4.7 0 8.5-3.8 8.5-8.5v-76.8c.1-4.7-3.8-8.5-8.5-8.5zm-8.5 76.8h-17.1v-59.7H128v59.7z"/><path class="st0" d="M170.7 290.1h-34.1c-4.7 0-8.5 3.8-8.5 8.5v59.7c0 4.7 3.8 8.5 8.5 8.5h34.1c4.7 0 8.5-3.8 8.5-8.5v-59.7c0-4.7-3.8-8.5-8.5-8.5zm-8.6 59.8H145v-42.7h17.1v42.7zm68.3-264.6c-4.7 0-8.5 3.8-8.5 8.5s3.8 8.5 8.5 8.5 8.5 3.8 8.5 8.5-3.8 8.5-8.5 8.5-8.5-3.8-8.5-8.5-3.8-8.5-8.5-8.5-8.5 3.8-8.5 8.5c0 14.1 11.5 25.6 25.6 25.6S256 125 256 110.9s-11.5-25.6-25.6-25.6zm68.3 0c-4.7 0-8.5 3.8-8.5 8.5s3.8 8.5 8.5 8.5 8.5 3.8 8.5 8.5-3.8 8.5-8.5 8.5-8.5-3.8-8.5-8.5-3.8-8.5-8.5-8.5-8.5 3.8-8.5 8.5c0 14.1 11.5 25.6 25.6 25.6s25.6-11.5 25.6-25.6-11.6-25.5-25.7-25.5z"/></symbol><symbol id="catalog-8" viewBox="0 0 480 480"><style/><path class="st0" d="M472 96H328c-4.4 0-8 3.6-8 8v184H144v-.1c-5.7.5-11.4.2-17.2.2-.3 0-.6 0-.9-.1H97.1c-.5.2-1.1.3-1.8.3-4.8-.1-9.7-.8-14.5-.5H80v.3H48v-.2H33c-.4 0-.7 0-1-.1v.3H8c-4.4 0-8 3.6-8 8v176c0 4.4 3.6 8 8 8h464c4.4 0 8-3.6 8-8V104c0-4.4-3.6-8-8-8zM160 464H16V352h144v112zm0-128H16v-32h144v32zm80 128h-64V352h64v112zm80 0h-64V352h64v112zm0-128H176v-32h144v32zm144 128H336V224h128v240zm0-256H336v-96h128v96z"/><path class="st0" d="M352 144h16v32h-16v-32zm0 112h16v32h-16v-32zM48 320c0 4.4-3.6 8-8 8s-8-3.6-8-8 3.6-8 8-8 8 3.6 8 8zm32 0c0 4.4-3.6 8-8 8s-8-3.6-8-8 3.6-8 8-8 8 3.6 8 8zm32 0c0 4.4-3.6 8-8 8s-8-3.6-8-8 3.6-8 8-8 8 3.6 8 8zm32 0c0 4.4-3.6 8-8 8s-8-3.6-8-8 3.6-8 8-8 8 3.6 8 8zm-8 48H40c-4.4 0-8 3.6-8 8v64c0 4.4 3.6 8 8 8h96c4.4 0 8-3.6 8-8v-64c0-4.4-3.6-8-8-8zm-8 64H48v-48h80v48zm80-40h16v32h-16v-32zm64 0h16v32h-16v-32z"/></symbol><symbol id="catalog-9" viewBox="0 0 592.9 592.9"><style/><path class="st0" d="M412.1 254.4c12 0 39.7-3.8 39.7-36.8 0-42.1-26.8-22.9-26.8-47.3s10-31.6 10-31.6h4.8c2.9 0 4.8-1.9 4.8-4.8s-1.9-4.8-4.8-4.8h-57.4c-2.9 0-4.8 1.9-4.8 4.8s1.9 4.8 4.8 4.8h4.3s11.5 6.7 11.5 31.6c0 24.9-27.3 5.3-27.3 47.3 0 33 27.3 36.8 39.2 36.8h2zM0 406.4h592.9V263H0v143.4zm315.6-114.7h239.1v86.1H315.6v-86.1zm-277.4 0h239.1v86.1H38.2v-86.1zM19.1 425.5h47.8v38.2H19.1zm506.8 0h47.8v38.2h-47.8z"/></symbol></svg>